<svg width="180" height="39" viewBox="0 0 180 39" fill="none" xmlns="http://www.w3.org/2000/svg">
<path d="M24.0308 4.31709C23.9931 4.27022 23.9555 4.22336 23.9073 4.16258C23.8921 4.14098 23.8849 4.13771 23.8751 4.13887C23.8567 4.11488 23.8382 4.09087 23.8049 4.05026C23.6385 3.87394 23.487 3.71423 23.3355 3.55453C23.3355 3.55453 23.3235 3.5546 23.3265 3.54257C23.1749 3.35611 23.0221 3.18038 22.8642 3.00834C22.8334 2.97488 22.7835 2.93485 22.7412 2.93375C22.5786 2.92953 22.4147 2.9082 22.2559 2.97559C21.3228 3.37144 20.4622 3.86182 19.6985 4.48391C18.4497 5.50107 17.5481 6.71813 17.0072 8.14303C16.8477 8.56325 16.7036 8.9879 16.6406 9.4302C16.636 9.44571 16.6313 9.46122 16.6205 9.49774C16.6119 9.54781 16.6092 9.5768 16.6066 9.60587C16.5998 9.63202 16.593 9.65817 16.5794 9.70878C16.5675 9.79599 16.5623 9.85884 16.5572 9.92159C16.5533 9.93719 16.5495 9.9527 16.5397 9.99179C16.5187 10.148 16.5035 10.2807 16.4884 10.4133C16.4856 10.8358 16.4827 11.2583 16.481 11.7087C16.4912 11.7867 16.5004 11.8369 16.5096 11.887C16.5127 11.9366 16.5158 11.9863 16.5216 12.0598C16.5329 12.1117 16.5417 12.1396 16.5505 12.1675C16.5547 12.2173 16.5588 12.2672 16.5658 12.3389C16.5756 12.3785 16.5826 12.3959 16.5896 12.4135C16.5923 12.4518 16.595 12.49 16.6004 12.5503C16.6109 12.5898 16.6189 12.6073 16.6269 12.6249C16.6405 12.7097 16.6541 12.7945 16.6714 12.9036C16.6868 12.9551 16.6984 12.9824 16.7101 13.0098C16.79 13.2858 16.8493 13.568 16.9549 13.8359C17.1 14.2039 17.2801 14.561 17.4545 14.9439C17.4866 14.9967 17.5093 15.0285 17.5321 15.0602C17.5492 15.0979 17.5664 15.1356 17.5906 15.1888C17.6009 15.213 17.6077 15.218 17.618 15.219C17.618 15.219 17.617 15.2217 17.6195 15.2333C17.6455 15.2752 17.669 15.3057 17.6926 15.3361C17.9195 15.6573 18.1465 15.9786 18.3831 16.3127C18.3926 16.3257 18.4001 16.3327 18.4001 16.3327L18.4109 16.3322C18.4109 16.3322 18.4119 16.3406 18.4195 16.3531C18.4991 16.4439 18.5711 16.5222 18.6431 16.6005C18.6764 16.6416 18.7097 16.6827 18.7571 16.7401C18.9941 16.9703 19.2126 17.1879 19.4416 17.3964C19.5644 17.5083 19.7051 17.6046 19.8378 17.708C19.8473 17.7188 19.8569 17.7296 19.8818 17.754C19.9291 17.7857 19.9611 17.8039 19.993 17.8221C20.0017 17.8314 20.0103 17.8407 20.0346 17.863C20.2432 18.0043 20.4362 18.1325 20.6292 18.2608C20.6935 18.3019 20.7579 18.343 20.8412 18.3965C20.8881 18.424 20.9161 18.4391 20.944 18.4543C21.0192 18.5386 20.9551 18.6237 20.9395 18.7294C20.9329 18.7687 20.9322 18.7871 20.9315 18.8055C20.8967 18.9483 20.862 19.0911 20.8215 19.2554C20.815 19.2955 20.8143 19.3139 20.8137 19.3322C20.7646 19.5331 20.7156 19.7341 20.6603 19.9567C20.6517 19.9971 20.6494 20.0158 20.6471 20.0345C20.6415 20.0499 20.6358 20.0653 20.6239 20.1002C20.6157 20.1381 20.6137 20.1566 20.6118 20.175C20.5899 20.2587 20.568 20.3424 20.5378 20.4507C20.5144 20.5346 20.507 20.5967 20.4809 20.6519C20.4679 20.6795 20.4209 20.6947 20.3893 20.7155C20.3196 20.6764 20.2499 20.6372 20.1591 20.5867C20.0917 20.5547 20.0454 20.5339 19.9992 20.5132C19.9347 20.4737 19.8702 20.4342 19.7864 20.3824C19.6846 20.3275 19.6022 20.2849 19.5197 20.2422C19.4889 20.2207 19.4581 20.1991 19.4092 20.1654C19.355 20.1354 19.3188 20.1178 19.2826 20.1001C19.1992 20.0446 19.1157 19.9889 19.0134 19.9199C18.9179 19.856 18.8413 19.8058 18.7647 19.7555C18.7505 19.7425 18.7363 19.7296 18.7062 19.7046C18.6627 19.6775 18.6352 19.6623 18.6077 19.647C18.5829 19.6264 18.5582 19.6057 18.5213 19.5748C18.5034 19.5577 18.4962 19.556 18.4875 19.5595C18.4875 19.5595 18.4794 19.5475 18.4741 19.5416C18.4688 19.5359 18.4585 19.5373 18.4585 19.5373C18.3907 19.4838 18.3229 19.4303 18.2432 19.3664C18.2314 19.3561 18.2167 19.3556 18.2167 19.3556C17.8687 19.0462 17.5207 18.7367 17.1644 18.418C17.156 18.4088 17.1464 18.4081 17.1464 18.4081C17.0884 18.3444 17.0304 18.2808 16.9572 18.2005C16.9064 18.1535 16.8708 18.123 16.8352 18.0926C16.8352 18.0926 16.8298 18.1028 16.8302 18.0867C16.7787 18.02 16.7268 17.9693 16.6748 17.9188C16.6748 17.9188 16.6705 17.9266 16.6712 17.9122C16.6445 17.8705 16.617 17.8433 16.5896 17.8161C16.558 17.774 16.5264 17.7319 16.4812 17.6733C16.4296 17.6167 16.3915 17.5765 16.3535 17.5364C16.3535 17.5364 16.3513 17.541 16.3506 17.5274C16.3017 17.4606 16.2534 17.4073 16.2052 17.3539C16.2052 17.3539 16.1967 17.3521 16.1986 17.3412C16.1563 17.2756 16.1122 17.221 16.068 17.1663C16.0125 17.0842 15.9571 17.0021 15.889 16.9032C15.8622 16.8709 15.8479 16.8554 15.8337 16.8399C15.8337 16.8399 15.8345 16.8386 15.8316 16.8267C15.751 16.7056 15.6733 16.5966 15.5956 16.4876C15.5876 16.4687 15.5795 16.4499 15.5615 16.4126C15.515 16.3405 15.4786 16.2866 15.4422 16.2328C15.4361 16.216 15.4301 16.1991 15.4174 16.1696C15.4108 16.1568 15.3966 16.1497 15.3966 16.1497C15.3921 16.1371 15.3876 16.1244 15.3727 16.095C15.3485 16.0612 15.3347 16.0442 15.321 16.0272C15.2457 15.8829 15.1705 15.7386 15.0865 15.5731C15.0538 15.5122 15.0298 15.4727 15.0057 15.4331C14.9846 15.3804 14.9635 15.3277 14.9328 15.2537C14.8854 15.1548 14.8476 15.0772 14.8098 14.9996C14.8098 14.9996 14.8108 14.987 14.807 14.9711C14.7896 14.9296 14.7759 14.9041 14.7622 14.8785C14.7618 14.8714 14.7614 14.8643 14.7561 14.8359C14.7264 14.764 14.7016 14.7135 14.6768 14.663C14.6385 14.5536 14.6001 14.4442 14.5562 14.3135C14.5408 14.2754 14.5309 14.2586 14.521 14.2419C14.4895 14.1317 14.458 14.0214 14.4189 13.8878C14.3966 13.8258 14.3818 13.7873 14.367 13.7489C14.35 13.6726 14.333 13.5962 14.3124 13.4998C14.3018 13.4661 14.2947 13.4523 14.2876 13.4385C14.2847 13.4101 14.2817 13.3817 14.275 13.3315C14.2624 13.2926 14.2535 13.2755 14.2447 13.2585C14.2435 13.2421 14.2423 13.2257 14.2376 13.1891C14.2255 13.1515 14.2169 13.1342 14.2082 13.117C14.2042 13.0787 14.2003 13.0404 14.1927 12.9806C14.1813 12.9418 14.1735 12.9245 14.1656 12.9073C14.1541 12.8225 14.1425 12.7375 14.1286 12.6255C14.1187 12.572 14.1112 12.5457 14.1078 12.5105C14.1047 12.4844 14.0974 12.467 14.0922 12.4356C14.0875 12.384 14.0809 12.3467 14.0775 12.2965C14.07 12.2338 14.0593 12.1841 14.0487 12.1343C14.0449 12.0616 14.0412 11.989 14.0361 11.8891C14.026 11.8007 14.0172 11.7393 14.0085 11.6781C14.007 11.4194 14.0056 11.1608 14.005 10.8719C14.004 10.7922 14.002 10.7426 14 10.6932C14.005 10.6098 14.01 10.5264 14.0197 10.4163C14.0254 10.327 14.0264 10.2644 14.0274 10.2019C14.0364 10.1302 14.0453 10.0584 14.0595 9.96174C14.065 9.89837 14.0652 9.85999 14.0724 9.80752C14.0827 9.74219 14.0861 9.69105 14.0962 9.63237C14.1012 9.60685 14.0995 9.58876 14.1059 9.55872C14.1158 9.51919 14.1176 9.49171 14.1195 9.46423C14.1239 9.44792 14.1283 9.43161 14.136 9.40086C14.1392 9.38632 14.1419 9.37719 14.1419 9.37719L14.1325 9.37285C14.1446 9.32029 14.1568 9.26764 14.1744 9.19159C14.1794 9.14975 14.1788 9.13149 14.1782 9.11324C14.193 9.0542 14.2077 8.99517 14.2313 8.90991C14.2507 8.82162 14.2614 8.75949 14.2722 8.69736C14.2722 8.69736 14.2739 8.68761 14.2796 8.67848C14.2907 8.64178 14.296 8.61422 14.3013 8.58665C14.323 8.51388 14.3448 8.44111 14.3732 8.34734C14.382 8.30754 14.3841 8.28892 14.3935 8.25959C14.4048 8.2244 14.4087 8.19985 14.4127 8.17538C14.4251 8.14525 14.4375 8.1152 14.4584 8.06308C14.4954 7.95787 14.5227 7.8742 14.5527 7.79141C14.6308 7.57638 14.7102 7.36171 14.789 7.14686C14.8074 7.10865 14.8258 7.07054 14.8548 7.01169C14.9923 6.72788 15.1194 6.46481 15.2464 6.20174C15.2714 6.16229 15.2964 6.12276 15.3333 6.06506C15.3646 6.00514 15.384 5.96348 15.4033 5.92183C15.4033 5.92183 15.4022 5.91837 15.4134 5.91367C15.6933 5.51729 15.957 5.12297 16.2328 4.73537C16.365 4.54953 16.52 4.3764 16.6646 4.19753C16.6646 4.19753 16.6663 4.19786 16.6777 4.19199C17.1461 3.68929 17.63 3.21507 18.1786 2.79523C18.3619 2.65492 18.5452 2.5145 18.7284 2.37413C18.7284 2.37413 18.726 2.37239 18.7404 2.37087C18.8024 2.33811 18.8505 2.30737 18.8976 2.27556C19.5714 1.82113 20.2901 1.43153 21.0509 1.10254C22.2407 0.587953 23.498 0.276736 24.8055 0.107877C26.0103 -0.0476962 27.2127 -0.0320695 28.4112 0.135815C29.4567 0.282268 30.4683 0.542058 31.4398 0.91984C33.0564 1.54844 34.4717 2.42638 35.6615 3.58548C35.8254 3.74512 35.9894 3.90469 36.1533 4.06428C36.197 4.1179 36.2407 4.17151 36.2993 4.24241C36.4593 4.42667 36.6044 4.59364 36.7496 4.76061C36.7496 4.76061 36.7508 4.75977 36.7526 4.77158C36.791 4.82657 36.8275 4.86977 36.864 4.91297C36.8725 4.92941 36.8809 4.94585 36.9009 4.97838C36.963 5.05794 37.0135 5.12142 37.0639 5.1849C37.0639 5.1849 37.0661 5.18092 37.0661 5.19365C37.0982 5.24807 37.1303 5.28977 37.1624 5.33142C37.1858 5.37167 37.2092 5.41182 37.2458 5.47165C37.4446 5.79809 37.6302 6.10477 37.8158 6.41154C37.8391 6.4633 37.8623 6.51515 37.8945 6.58765C37.9272 6.64793 37.951 6.68746 37.9748 6.72708C37.9914 6.76954 38.0079 6.81208 38.0348 6.8759C38.075 6.95744 38.1049 7.01763 38.1348 7.07781C38.1578 7.14101 38.1808 7.20429 38.2119 7.28974C38.2438 7.36295 38.2676 7.414 38.2913 7.46497C38.3031 7.50423 38.3149 7.5435 38.3334 7.60652C38.3778 7.72689 38.4156 7.82359 38.4533 7.9202C38.4764 8.00609 38.4996 8.09198 38.529 8.20064C38.548 8.25099 38.5606 8.27855 38.5732 8.30612C38.6078 8.45033 38.6424 8.59454 38.6829 8.76392C38.7033 8.83864 38.7178 8.88828 38.7324 8.93791C38.7499 9.04605 38.7674 9.15418 38.7883 9.28439C38.799 9.32383 38.8062 9.34129 38.8134 9.35867C38.8168 9.4083 38.8201 9.45794 38.8262 9.53461C38.8499 9.66969 38.8708 9.77765 38.8917 9.88569C38.8914 9.90165 38.891 9.91751 38.8922 9.95988C38.9065 10.0814 38.9192 10.1765 38.9318 10.2717C38.9326 10.3208 38.9334 10.3699 38.9344 10.4495C38.9415 10.797 38.9483 11.1142 38.9551 11.4314C38.9457 11.5496 38.9363 11.6677 38.9218 11.8139C38.9112 11.9273 38.9056 12.0129 38.9001 12.0986C38.8958 12.125 38.8914 12.1513 38.8812 12.2022C38.8613 12.3363 38.8471 12.446 38.833 12.5557C38.8246 12.6041 38.8162 12.6525 38.8026 12.7232C38.7971 12.764 38.7968 12.7826 38.7965 12.8012C38.7875 12.8383 38.7785 12.8754 38.7623 12.9379C38.7278 13.0967 38.7004 13.2302 38.6731 13.3637C38.6655 13.3894 38.658 13.4152 38.6429 13.4648C38.5763 13.6921 38.5214 13.8964 38.4575 14.0985C38.033 15.4421 37.3225 16.658 36.3708 17.766C36.2397 17.9186 36.1112 18.0728 35.9815 18.2263C35.9815 18.2263 35.9826 18.2291 35.969 18.2328C35.6804 18.4917 35.405 18.7468 35.1307 19.0027C35.0954 19.0357 35.0662 19.0736 35.0342 19.1094C35.0342 19.1094 35.0434 19.1142 35.026 19.1145C34.9129 19.1964 34.8172 19.2781 34.7215 19.3599C34.7215 19.3599 34.7281 19.3641 34.7126 19.3642C34.0078 19.8723 33.2941 20.3484 32.4806 20.7228C32.4473 20.6196 32.4207 20.5372 32.3941 20.4548C32.3823 20.3931 32.3706 20.3314 32.3549 20.2432C32.3242 20.121 32.2973 20.0252 32.2705 19.9295C32.2687 19.9026 32.2669 19.8755 32.2617 19.8268C32.2494 19.7879 32.2407 19.7708 32.232 19.7536C32.2296 19.7266 32.2272 19.6996 32.221 19.6512C32.2089 19.6125 32.2006 19.5953 32.1923 19.578C32.192 19.5621 32.1917 19.5463 32.1885 19.5051C32.1477 19.3373 32.1098 19.1946 32.0719 19.052C32.0684 19.0223 32.065 18.9927 32.0569 18.9452C32.0513 18.9189 32.0462 18.9132 32.0371 18.9103C32.0364 18.8945 32.0357 18.8787 32.0327 18.838C32.0188 18.7561 32.0147 18.6969 31.9939 18.6427C31.9566 18.5453 31.9833 18.4789 32.0829 18.4232C32.1932 18.3616 32.2993 18.2926 32.4004 18.2194C32.6426 18.044 32.8808 17.8642 33.1207 17.6863C33.1207 17.6863 33.1374 17.681 33.15 17.6741C33.1722 17.6624 33.1764 17.655 33.175 17.6452C33.2011 17.6283 33.2273 17.6113 33.2714 17.581C33.3488 17.5126 33.4083 17.4575 33.4679 17.4023C33.4812 17.401 33.4915 17.3953 33.514 17.3729C33.6976 17.2055 33.8751 17.0575 34.032 16.8941C34.2222 16.6958 34.395 16.4845 34.5754 16.2789C34.5754 16.2789 34.5726 16.2765 34.5853 16.2725C34.7974 15.9893 34.9968 15.7102 35.1963 15.431C35.1963 15.431 35.2042 15.427 35.2083 15.4234C35.2125 15.4198 35.2099 15.4093 35.2099 15.4093C35.2277 15.3838 35.2455 15.3583 35.2778 15.3117C35.3158 15.2448 35.3393 15.1989 35.3628 15.1529C35.3628 15.1529 35.3717 15.1451 35.3821 15.1314C35.4357 15.0349 35.4789 14.952 35.5287 14.8653C35.5434 14.8537 35.5449 14.845 35.5398 14.8354C35.5615 14.798 35.5832 14.7607 35.6156 14.705C35.6301 14.6741 35.634 14.6617 35.6439 14.6474C35.657 14.6382 35.6563 14.6315 35.6478 14.6256C35.6848 14.5528 35.7218 14.48 35.7699 14.3859C35.8521 14.1827 35.9231 14.001 35.9941 13.8192C35.999 13.8076 36.0039 13.7961 36.0177 13.7658C36.0635 13.6302 36.1004 13.5134 36.1372 13.3965C36.1436 13.3815 36.15 13.3664 36.1646 13.3297C36.1867 13.2438 36.2007 13.1797 36.2147 13.1156C36.2208 13.1001 36.2269 13.0848 36.2403 13.0471C36.2622 12.9496 36.2768 12.8744 36.2914 12.7992C36.2979 12.7839 36.3043 12.7686 36.3179 12.7323C36.3263 12.6822 36.3275 12.6531 36.3288 12.624C36.3364 12.5977 36.3439 12.5713 36.3581 12.521C36.369 12.4458 36.3734 12.3945 36.3777 12.3433C36.3822 12.3275 36.3866 12.3117 36.3977 12.2736C36.4076 12.2 36.411 12.1487 36.4144 12.0974C36.4209 12.0599 36.4274 12.0224 36.44 11.9599C36.4496 11.872 36.4531 11.8092 36.4566 11.7464C36.4616 11.7197 36.4666 11.6931 36.4774 11.6412C36.4873 11.4007 36.4945 11.1855 36.4938 10.9704C36.4935 10.8788 36.4767 10.7873 36.4673 10.6956C36.4671 10.6463 36.4668 10.5968 36.466 10.5187C36.453 10.4063 36.4406 10.3227 36.4282 10.2391C36.4269 10.2009 36.4256 10.1627 36.4224 10.0993C36.4107 10.0352 36.4009 9.99622 36.3911 9.95731C36.3882 9.90794 36.3853 9.85848 36.3803 9.78492C36.3687 9.7328 36.3591 9.70488 36.3495 9.67705C36.348 9.64842 36.3465 9.61979 36.3425 9.56838C36.3309 9.5206 36.3217 9.49579 36.3126 9.47097C36.3124 9.45936 36.3123 9.44775 36.307 9.41451C36.2829 9.32259 36.2638 9.2523 36.2447 9.18202C36.2206 9.07025 36.1964 8.95857 36.1686 8.83191C36.1651 8.81702 36.1539 8.80842 36.1539 8.80842C36.1518 8.79016 36.1498 8.7719 36.1437 8.73166C36.1295 8.69293 36.1194 8.67617 36.1093 8.65942C36.1059 8.64028 36.1025 8.62122 36.0944 8.58656C36.089 8.56325 36.0841 8.55926 36.0753 8.559C36.0551 8.4935 36.035 8.42799 36.0077 8.33838C35.9606 8.21775 35.9205 8.12123 35.8804 8.02479C35.8628 7.97117 35.8452 7.91754 35.8176 7.84389C35.788 7.78308 35.7683 7.74231 35.7486 7.70163C35.7486 7.70163 35.7466 7.68647 35.7384 7.66883C35.716 7.6293 35.7018 7.60741 35.6876 7.58551C35.6876 7.58551 35.6912 7.57594 35.6869 7.55919C35.6099 7.39956 35.544 7.25375 35.4632 7.11468C35.3587 6.93484 35.2424 6.76049 35.1312 6.58376C35.1075 6.54325 35.0838 6.50274 35.0486 6.44203C34.8303 6.1583 34.6235 5.89488 34.4166 5.63146C34.4172 5.62082 34.4133 5.61178 34.3926 5.58909C33.996 5.13712 33.568 4.73648 33.0965 4.37328C32.9491 4.25977 32.789 4.1592 32.6348 4.05271C32.6348 4.05271 32.6308 4.05583 32.6276 4.04412C32.5903 4.00486 32.5588 3.97413 32.5217 3.95023C31.9279 3.56772 31.3045 3.22771 30.6303 2.96953C30.4949 2.91768 30.3214 2.94058 30.1652 2.9377C30.1362 2.93717 30.1013 2.97468 30.0775 3.00069C29.8741 3.22324 29.6712 3.44616 29.4709 3.67091C29.0213 4.17545 28.5726 4.68057 28.1255 5.18686C28.0597 5.26136 27.9905 5.29391 27.8754 5.29063C27.5992 5.28275 27.3222 5.29554 27.0286 5.29563C26.9302 5.29435 26.8488 5.29741 26.7529 5.29655C26.7089 5.29519 26.6792 5.29778 26.6317 5.29594C26.4007 5.29437 26.1876 5.29719 25.9565 5.29609C25.6486 5.29254 25.3587 5.29069 25.0688 5.29452C24.9684 5.29584 24.8913 5.27044 24.8298 5.19805C24.7466 5.10026 24.6574 5.00653 24.5708 4.91104C24.3978 4.72022 24.2248 4.5294 24.0517 4.33299C24.0474 4.31965 24.0405 4.31621 24.0308 4.31709Z" fill="#007AFF"/>
<path d="M30.8116 18.804C30.8411 18.9473 30.8706 19.0907 30.9038 19.2577C30.9168 19.3091 30.926 19.3368 30.9352 19.3645C30.9496 19.4385 30.964 19.5124 30.9822 19.6079C30.9945 19.6469 31.0028 19.6641 31.0111 19.6814C31.0181 19.7243 31.025 19.7671 31.0355 19.824C31.0391 19.8381 31.049 19.8462 31.049 19.8462C31.0523 19.8761 31.0557 19.9059 31.0628 19.9581C31.0744 19.9979 31.0823 20.0153 31.0902 20.0327C31.0931 20.0599 31.096 20.0871 31.1027 20.1351C31.1144 20.1734 31.1223 20.1908 31.1301 20.2082C31.1365 20.2505 31.1429 20.2928 31.1528 20.3505C31.1562 20.3659 31.1675 20.3749 31.1675 20.3749C31.1694 20.3941 31.1712 20.4132 31.1765 20.4558C31.1902 20.5059 31.2005 20.5324 31.2108 20.5589C31.2169 20.6015 31.2229 20.6439 31.2322 20.7016C31.2354 20.7168 31.2466 20.7256 31.2466 20.7256C31.2479 20.7436 31.2492 20.7617 31.2538 20.8034C31.268 20.8548 31.2787 20.8825 31.2895 20.9104C31.2962 20.9533 31.3029 20.9962 31.3132 21.0529C31.3168 21.0667 31.3264 21.0748 31.3264 21.0748C31.3446 21.1634 31.3628 21.2521 31.3856 21.3659C31.4089 21.4532 31.4276 21.5155 31.4463 21.5777C31.449 21.6047 31.4517 21.6318 31.4578 21.68C31.469 21.7186 31.477 21.7361 31.485 21.7535C31.5077 21.8625 31.5305 21.9713 31.5575 22.1067C31.5838 22.2187 31.6059 22.3044 31.6279 22.39C31.6551 22.5356 31.6822 22.6811 31.7092 22.8446C31.7089 22.8625 31.7131 22.8696 31.7131 22.8696C31.7063 22.8763 31.6996 22.8829 31.6749 22.9057C31.6241 22.9533 31.5913 22.985 31.5585 23.0166C31.5585 23.0166 31.561 23.0184 31.5477 23.0215C31.4362 23.1155 31.338 23.2065 31.2397 23.2976C31.2264 23.2983 31.2158 23.3035 31.1929 23.3245C31.1457 23.3696 31.1136 23.4033 31.0816 23.4371C31.0816 23.4371 31.0849 23.4397 31.0719 23.4421C31.0139 23.4889 30.969 23.5334 30.924 23.578C30.924 23.578 30.9271 23.5801 30.9136 23.583C30.6963 23.7706 30.4926 23.9554 30.2888 24.1402C30.2754 24.1414 30.265 24.147 30.243 24.169C30.1961 24.214 30.1638 24.247 30.1315 24.2801C30.1315 24.2801 30.1347 24.2823 30.1211 24.2851C29.9912 24.3897 29.8734 24.4904 29.7588 24.5938C29.5254 24.8044 29.2938 25.0164 29.0614 25.2279C29.0614 25.2279 29.0652 25.2298 29.0511 25.2317C28.8191 25.4305 28.6011 25.6274 28.3831 25.8242C28.3704 25.8251 28.3607 25.8302 28.3387 25.8513C28.2382 25.943 28.1528 26.023 28.0675 26.1031C28.0675 26.1031 28.0727 26.1062 28.0585 26.1071C27.9992 26.1531 27.954 26.1982 27.9088 26.2433C27.9088 26.2433 27.9146 26.2468 27.9 26.2477C27.8389 26.294 27.7924 26.3394 27.7459 26.3848C27.4737 26.6199 27.2016 26.855 26.9126 27.1052C26.874 27.144 26.8522 27.1677 26.8304 27.1913C26.8195 27.192 26.8111 27.1964 26.7907 27.2159C26.6911 27.3097 26.6061 27.3919 26.521 27.4743C26.505 27.4769 26.489 27.4796 26.4543 27.4727C26.3761 27.4094 26.3166 27.3554 26.2732 27.3016C26.4098 27.3098 26.4515 27.2565 26.4523 27.1541C26.4536 26.9756 26.4252 26.7986 26.4464 26.6181C26.4712 26.4063 26.4615 26.1914 26.4685 25.978C26.4718 25.8762 26.4825 25.7747 26.4837 25.673C26.4851 25.5651 26.4803 25.4571 26.4762 25.3492C26.4704 25.1953 26.4554 25.0413 26.458 24.8874C26.461 24.7134 26.4837 24.5395 26.489 24.3655C26.4935 24.2196 26.4873 24.0733 26.4823 23.9272C26.4741 23.6909 26.4568 23.4546 26.4557 23.2182C26.455 23.0794 26.4863 22.9406 26.4888 22.8016C26.4942 22.4917 26.4861 22.1816 26.4921 21.8717C26.4956 21.6918 26.5172 21.5121 26.5276 21.3323C26.531 21.2741 26.5277 21.2153 26.5224 21.1573C26.514 21.0649 26.4919 20.9728 26.4918 20.8807C26.49 18.7693 26.4904 16.658 26.4903 14.5466C26.4903 14.4882 26.5056 14.4245 26.4852 14.3721C26.3824 14.1089 26.5074 13.8432 26.4645 13.577C26.4389 13.4185 26.5092 13.2503 26.4542 13.0858C26.4436 13.054 26.4536 13.0161 26.4571 12.9813C26.4674 12.8774 26.4897 12.7735 26.4889 12.6697C26.478 11.3056 26.5165 9.94145 26.4538 8.57743C26.4162 7.76083 26.4958 6.9422 26.4125 6.1256C26.3965 5.96942 26.3907 5.95471 26.2165 5.91376C26.1721 5.9033 26.1284 5.88938 26.0833 5.88336C26.0011 5.87228 25.9736 5.82734 25.9935 5.75625C26.5927 5.75191 27.1738 5.75164 27.7587 5.75652C27.7748 5.76122 27.787 5.76095 27.8058 5.76228C27.8123 5.76397 27.8259 5.76414 27.8259 5.76414C27.836 5.8191 27.8461 5.87405 27.8598 5.94966C27.8705 5.9875 27.8774 6.0047 27.8844 6.02189C27.8877 6.04937 27.891 6.07676 27.8978 6.12507C27.9089 6.163 27.9164 6.1802 27.924 6.19739C27.9529 6.32964 27.9818 6.46179 28.0146 6.61566C28.0261 6.65475 28.0338 6.67204 28.0415 6.68932C28.0448 6.71671 28.0481 6.74401 28.0552 6.79223C28.0667 6.83016 28.0745 6.84736 28.0823 6.86455C28.0992 6.95009 28.1161 7.03553 28.1369 7.14251C28.1482 7.18107 28.1555 7.19818 28.1629 7.21537C28.1642 7.23195 28.1656 7.24852 28.1705 7.28504C28.1819 7.32235 28.1897 7.33973 28.1975 7.3571C28.1982 7.37314 28.1988 7.38919 28.2023 7.42739C28.2154 7.47738 28.2257 7.50521 28.2359 7.53304C28.2804 7.74639 28.325 7.95982 28.3734 8.19533C28.3846 8.23468 28.3919 8.25187 28.3992 8.26907C28.4004 8.28556 28.4016 8.30204 28.4061 8.33856C28.4182 8.37588 28.4269 8.39316 28.4356 8.41044C28.4522 8.49571 28.4688 8.58098 28.4893 8.6877C28.5007 8.72652 28.5083 8.74389 28.516 8.76126C28.5185 8.78847 28.521 8.8156 28.527 8.8639C28.5384 8.90237 28.5463 8.91983 28.5542 8.9372C28.555 8.95325 28.5558 8.96938 28.5598 9.00749C28.5741 9.05704 28.5851 9.08452 28.5961 9.11208C28.6029 9.15551 28.6096 9.19895 28.6212 9.2547C28.626 9.26711 28.6328 9.27455 28.6328 9.27455C28.637 9.30522 28.6412 9.33589 28.6496 9.38889C28.6613 9.42851 28.6688 9.4458 28.6762 9.46299C28.6794 9.49047 28.6826 9.51786 28.6896 9.56616C28.7011 9.6041 28.7088 9.6212 28.7166 9.6384C28.7181 9.65489 28.7196 9.67146 28.7245 9.70789C28.7357 9.74521 28.7435 9.76276 28.7512 9.78022C28.756 9.8186 28.7608 9.85689 28.7697 9.91663C28.7815 9.95509 28.7891 9.97211 28.7967 9.98922C28.8152 10.076 28.8338 10.1628 28.8579 10.2748C28.8802 10.3605 28.8968 10.4209 28.9135 10.4812C28.9334 10.5833 28.9532 10.6853 28.9767 10.8002C28.9804 10.8132 28.9893 10.8212 28.9893 10.8212C28.993 10.8513 28.9966 10.8815 29.0048 10.9376C29.0297 11.0371 29.0499 11.1106 29.0701 11.1841C29.0865 11.2695 29.1029 11.3547 29.1235 11.4615C29.1354 11.5003 29.1431 11.5176 29.1508 11.5348C29.1538 11.5623 29.1567 11.5897 29.1646 11.6415C29.19 11.7392 29.2106 11.8124 29.2312 11.8856C29.2342 11.9131 29.2373 11.9405 29.2441 11.9888C29.2551 12.0269 29.2624 12.0443 29.2696 12.0616C29.273 12.0889 29.2764 12.1163 29.2836 12.1644C29.2951 12.2024 29.3028 12.2196 29.3104 12.2368C29.3137 12.264 29.3169 12.2911 29.3247 12.342C29.3479 12.4286 29.3664 12.4913 29.3849 12.5542C29.3874 12.581 29.3898 12.6079 29.3957 12.6577C29.4094 12.7081 29.4197 12.7357 29.4299 12.7632C29.4333 12.7908 29.4367 12.8183 29.444 12.8666C29.4551 12.9045 29.4622 12.9218 29.4693 12.939C29.4811 13.0011 29.4929 13.0633 29.5081 13.1493C29.522 13.2008 29.5326 13.2287 29.5432 13.2564C29.5482 13.2948 29.5531 13.3331 29.5624 13.3928C29.5738 13.4313 29.581 13.4485 29.5882 13.4657C29.5927 13.4961 29.5972 13.5265 29.6053 13.5735C29.609 13.5975 29.6132 13.6017 29.6217 13.6026C29.6343 13.666 29.6468 13.7293 29.6628 13.8177C29.679 13.881 29.6917 13.9194 29.7044 13.9579C29.7207 14.0432 29.737 14.1286 29.7574 14.2354C29.7688 14.2743 29.7762 14.2917 29.7836 14.309C29.7866 14.3363 29.7896 14.3634 29.797 14.415C29.8219 14.513 29.8424 14.5866 29.8628 14.6601C29.8693 14.7025 29.8757 14.7449 29.8854 14.8027C29.8887 14.8183 29.8998 14.8279 29.8998 14.8279C29.9068 14.8721 29.9138 14.9163 29.9242 14.9773C29.9276 14.9941 29.9392 15.0046 29.9392 15.0046C29.9493 15.0576 29.9595 15.1106 29.9742 15.1888C29.9936 15.2633 30.0085 15.3126 30.0234 15.3619C30.0265 15.3893 30.0297 15.4168 30.0371 15.465C30.0488 15.503 30.0563 15.5201 30.0638 15.5373C30.0889 15.6575 30.114 15.7779 30.1424 15.9226C30.1561 15.9747 30.1667 16.0025 30.1772 16.0303C30.1818 16.0686 30.1863 16.1068 30.1951 16.1666C30.2067 16.2052 30.2142 16.2224 30.2218 16.2396C30.247 16.3598 30.2722 16.48 30.3007 16.6247C30.3148 16.677 30.3257 16.7049 30.3365 16.7328C30.357 16.8343 30.3776 16.9359 30.402 17.0505C30.4059 17.0637 30.4153 17.0716 30.4153 17.0716C30.4459 17.219 30.4766 17.3663 30.5111 17.5356C30.5226 17.5747 30.5302 17.592 30.5378 17.6092C30.5415 17.6367 30.5453 17.6641 30.5528 17.7122C30.5637 17.7501 30.5709 17.7674 30.5781 17.7846C30.5812 17.8119 30.5842 17.8393 30.5917 17.8905C30.6152 17.9769 30.6344 18.0392 30.6536 18.1016C30.6566 18.1286 30.6597 18.1557 30.666 18.2038C30.6775 18.2423 30.6856 18.2597 30.6938 18.2771C30.7199 18.4088 30.7459 18.5405 30.7756 18.6966C30.79 18.7486 30.8008 18.7763 30.8116 18.804Z" fill="#006CE2"/>
<path d="M25.9756 5.76022C25.9738 5.82723 26.0013 5.87217 26.0835 5.88325C26.1286 5.88927 26.1723 5.90319 26.2167 5.91356C26.3908 5.95451 26.3967 5.96931 26.4126 6.12549C26.496 6.94209 26.4164 7.76073 26.454 8.57732C26.5167 9.94134 26.4782 11.3055 26.4891 12.6696C26.4899 12.7733 26.4676 12.8772 26.4573 12.9812C26.4538 13.016 26.4438 13.0538 26.4544 13.0856C26.5093 13.2502 26.4391 13.4183 26.4646 13.5769C26.5076 13.8431 26.3826 14.1087 26.4853 14.372C26.5058 14.4244 26.4904 14.4881 26.4905 14.5465C26.4906 16.6579 26.4902 18.7692 26.492 20.8806C26.4921 20.9727 26.5141 21.0648 26.5226 21.1572C26.5279 21.2152 26.5312 21.274 26.5278 21.3322C26.5174 21.512 26.4958 21.6917 26.4923 21.8716C26.4863 22.1815 26.4943 22.4916 26.489 22.8015C26.4865 22.9404 26.4552 23.0792 26.4559 23.2181C26.457 23.4544 26.4743 23.6907 26.4825 23.9271C26.4875 24.0731 26.4937 24.2194 26.4892 24.3653C26.4839 24.5394 26.4611 24.7132 26.4582 24.8873C26.4556 25.0412 26.4706 25.1952 26.4764 25.3491C26.4805 25.457 26.4853 25.565 26.4839 25.6729C26.4827 25.7746 26.472 25.8761 26.4687 25.9778C26.4617 26.1913 26.4714 26.4062 26.4466 26.6179C26.4254 26.7985 26.4538 26.9755 26.4525 27.154C26.4517 27.2564 26.41 27.3096 26.2645 27.2945C26.2196 27.2757 26.1998 27.2641 26.1799 27.2525C26.1791 27.2428 26.1741 27.2354 26.1521 27.2176C26.0995 27.1754 26.0597 27.1457 26.02 27.1161C25.9099 27.0166 25.7998 26.9172 25.6739 26.8024C25.633 26.769 25.6079 26.751 25.5828 26.7329C25.5129 26.6674 25.443 26.6018 25.357 26.5207C25.3027 26.4759 25.2644 26.4466 25.2262 26.4173C25.2248 26.406 25.2188 26.3972 25.1948 26.3776C25.0907 26.2886 24.9997 26.2129 24.9088 26.1373C24.8906 26.1174 24.8724 26.0976 24.84 26.0639C24.8006 26.0321 24.7755 26.0144 24.7504 25.9966C24.7491 25.9852 24.743 25.9764 24.7195 25.9574C24.6818 25.9268 24.6566 25.9091 24.6315 25.8914C24.5874 25.8488 24.5433 25.8062 24.4838 25.7485C24.4301 25.7045 24.3919 25.6756 24.3537 25.6468C24.2957 25.5925 24.2377 25.5383 24.1632 25.4688C24.0837 25.401 24.0206 25.3486 23.9576 25.2961C23.6236 24.9958 23.2896 24.6955 22.9393 24.3792C22.8455 24.299 22.7681 24.2348 22.6906 24.1706C22.6582 24.1399 22.6259 24.1091 22.5777 24.0644C22.531 24.0294 22.5 24.0081 22.4691 23.9869C22.4691 23.9869 22.4654 23.9876 22.4624 23.9762C22.43 23.9417 22.4006 23.9185 22.3712 23.8953C22.3691 23.883 22.3622 23.8734 22.3367 23.8533C22.2863 23.8115 22.2497 23.7828 22.213 23.7542C22.1555 23.6988 22.098 23.6434 22.024 23.5733C21.9706 23.53 21.9335 23.5014 21.8964 23.4728C21.8945 23.4606 21.8878 23.4512 21.8625 23.4313C21.8118 23.3896 21.7749 23.3609 21.738 23.3323C21.7361 23.3202 21.7293 23.3107 21.7041 23.2908C21.6533 23.2494 21.6162 23.2211 21.5792 23.1928C21.5208 23.1376 21.4625 23.0824 21.3865 23.0109C21.2558 22.9182 21.2271 22.819 21.2625 22.6995C21.2722 22.6668 21.2685 22.631 21.271 22.5965C21.2813 22.5593 21.2916 22.5221 21.3084 22.4616C21.3185 22.4092 21.3222 22.3799 21.326 22.3507C21.331 22.3352 21.3361 22.3198 21.3482 22.2817C21.3817 22.1256 21.408 21.9924 21.4344 21.8591C21.4428 21.833 21.4512 21.807 21.4657 21.76C21.473 21.7206 21.4743 21.7019 21.4755 21.6833C21.4837 21.6573 21.4919 21.6313 21.5074 21.5815C21.5397 21.4358 21.5647 21.3139 21.5897 21.192C21.5985 21.1658 21.6074 21.1396 21.6218 21.0923C21.6272 21.0529 21.627 21.0346 21.6268 21.0163C21.6365 20.9902 21.6462 20.964 21.6627 20.9136C21.6862 20.8027 21.7029 20.7161 21.7195 20.6295C21.7249 20.6142 21.7303 20.5989 21.7423 20.5627C21.7519 20.5127 21.7549 20.4836 21.7579 20.4545C21.7649 20.4285 21.7718 20.4025 21.785 20.3559C21.7935 20.3165 21.7958 20.2977 21.7981 20.2789C21.8034 20.2633 21.8088 20.2478 21.821 20.2092C21.8589 20.0415 21.89 19.897 21.921 19.7524C21.9259 19.7369 21.9308 19.7215 21.9416 19.6868C21.9494 19.649 21.9513 19.6303 21.9532 19.6116C21.961 19.5857 21.9687 19.5598 21.9837 19.5099C22.0188 19.3523 22.0467 19.2187 22.0745 19.0851C22.0799 19.0696 22.0853 19.054 22.097 19.0173C22.1073 18.9674 22.1112 18.9385 22.1151 18.9095C22.1204 18.894 22.1257 18.8784 22.1377 18.8395C22.1751 18.6601 22.2057 18.504 22.2362 18.3479C22.2412 18.3323 22.2462 18.3168 22.2587 18.2786C22.3083 18.0642 22.3505 17.8724 22.3927 17.6806C22.3981 17.6652 22.4035 17.6497 22.4161 17.6111C22.4779 17.338 22.5324 17.0879 22.5869 16.8379C22.5946 16.8119 22.6023 16.786 22.6174 16.736C22.6383 16.6614 22.6542 16.6114 22.665 16.5605C22.7298 16.2551 22.7934 15.9496 22.8574 15.6441C22.8661 15.6179 22.8748 15.5917 22.8907 15.5409C22.9325 15.3481 22.9673 15.18 23.002 15.0119C23.002 15.0119 23.0046 15.0107 23.0086 15.0075C23.0126 15.0044 23.0157 14.9956 23.0157 14.9956L23.0072 14.9902C23.019 14.9494 23.0309 14.9086 23.0485 14.8446C23.0557 14.8029 23.0571 14.7845 23.0585 14.7661C23.0669 14.7401 23.0752 14.714 23.0908 14.6637C23.1228 14.5179 23.1477 14.3964 23.1726 14.2749C23.1832 14.2379 23.1938 14.2008 23.2108 14.142C23.2196 14.1015 23.222 14.0827 23.2244 14.0639C23.2312 14.038 23.2381 14.0121 23.2527 13.9624C23.3009 13.7463 23.3414 13.554 23.3819 13.3618C23.389 13.3358 23.396 13.3098 23.4104 13.2598C23.4458 13.1022 23.4737 12.9686 23.5017 12.835C23.5084 12.809 23.5151 12.7831 23.528 12.7365C23.5367 12.6971 23.539 12.6782 23.5414 12.6594C23.5465 12.6439 23.5516 12.6284 23.5639 12.5899C23.5988 12.434 23.6265 12.3009 23.6542 12.1679C23.6621 12.1418 23.67 12.1157 23.6839 12.0688C23.6913 12.0294 23.6927 12.0108 23.6941 11.9922C23.7024 11.9663 23.7106 11.9403 23.7263 11.8902C23.7614 11.7326 23.7892 11.5991 23.8169 11.4657C23.8237 11.4395 23.8305 11.4134 23.8445 11.363C23.8898 11.1587 23.9279 10.9786 23.9661 10.7986C23.9748 10.7726 23.9836 10.7464 23.9978 10.6946C24.0478 10.4663 24.0923 10.2638 24.1368 10.0613C24.1416 10.0457 24.1464 10.0301 24.157 9.99496C24.1632 9.95729 24.1639 9.93894 24.1645 9.9206C24.1735 9.89471 24.1825 9.86874 24.1983 9.81849C24.2228 9.70743 24.2406 9.62083 24.2583 9.53414C24.2632 9.51881 24.268 9.50348 24.2786 9.46882C24.2846 9.43097 24.285 9.41245 24.2853 9.39392C24.2938 9.36786 24.3023 9.34172 24.3172 9.29306C24.3277 9.24147 24.3318 9.2124 24.3358 9.18332C24.3411 9.16799 24.3463 9.15257 24.3589 9.11437C24.4265 8.83756 24.488 8.58379 24.5465 8.3295C24.5697 8.22845 24.5862 8.12626 24.6058 8.02459C24.6135 7.99853 24.6212 7.97239 24.6356 7.92399C24.6458 7.87249 24.6493 7.84324 24.6528 7.81399C24.6579 7.79848 24.6631 7.78306 24.6756 7.74495C24.7123 7.57725 24.7417 7.43233 24.771 7.28732C24.7759 7.27172 24.7807 7.25603 24.7928 7.21766C24.8405 7.00333 24.8809 6.8117 24.9213 6.62007C24.9294 6.59393 24.9374 6.56778 24.9532 6.5177C25.0068 6.32572 25.0527 6.15757 25.1107 5.98287C25.2316 5.88582 25.3565 5.8376 25.5094 5.847C25.6071 5.85302 25.7057 5.84691 25.8038 5.84815C25.8719 5.84895 25.8963 5.81615 25.9093 5.75712C25.94 5.75526 25.9578 5.75774 25.9756 5.76022Z" fill="#007AFF"/>
<mask id="mask0_2601_59" style="mask-type:alpha" maskUnits="userSpaceOnUse" x="0" y="5" width="180" height="34">
<path d="M180 38.9998H0V5.31812H180V38.9998Z" fill="#D9D9D9"/>
</mask>
<g mask="url(#mask0_2601_59)">
<path d="M52.2461 22.6591C51.7904 22.6591 51.5625 22.4149 51.5625 21.9266V9.38757C51.5625 8.89929 51.7904 8.65515 52.2461 8.65515H53.6914C54.2513 8.65515 54.6745 8.88302 54.9609 9.33875L59.9414 17.3368H60.0098C59.9772 16.9462 59.9609 16.5555 59.9609 16.1649V9.38757C59.9609 8.89929 60.1888 8.65515 60.6445 8.65515H62.1289C62.5846 8.65515 62.8125 8.89929 62.8125 9.38757V21.9266C62.8125 22.4149 62.5846 22.6591 62.1289 22.6591H60.7812C60.2214 22.6591 59.7982 22.4312 59.5117 21.9755L54.4336 13.8309H54.3652C54.3978 14.2216 54.4141 14.6122 54.4141 15.0028V21.9266C54.4141 22.4149 54.1862 22.6591 53.7305 22.6591H52.2461ZM65.1562 17.5321C65.1562 15.885 65.5664 14.5861 66.3867 13.6356C67.2135 12.6851 68.3789 12.2098 69.8828 12.2098C71.6276 12.2098 72.9232 12.6591 73.7695 13.5575C74.6159 14.4559 75.0391 15.9012 75.0391 17.8934C75.0391 18.2841 74.8568 18.4794 74.4922 18.4794H68.0469C68.151 19.5601 68.418 20.2404 68.8477 20.5204C69.2773 20.8003 69.7754 20.9403 70.3418 20.9403C70.8822 20.9403 71.2956 20.8687 71.582 20.7255C71.8685 20.5822 72.1094 20.3869 72.3047 20.1395C72.526 19.8531 72.7995 19.8075 73.125 20.0028L74.1016 20.5985C74.4857 20.8329 74.541 21.1128 74.2676 21.4384C73.8704 21.9136 73.4049 22.2684 72.8711 22.5028C72.3372 22.7372 71.4941 22.8544 70.3418 22.8544C68.4733 22.8544 67.1419 22.3791 66.3477 21.4286C65.5534 20.4781 65.1562 19.1792 65.1562 17.5321ZM68.0566 16.5262H72.3047C72.3047 15.8231 72.1289 15.2502 71.7773 14.8075C71.4258 14.3583 70.8659 14.1337 70.0977 14.1337C69.4857 14.1337 69.0007 14.3485 68.6426 14.7782C68.2845 15.2014 68.0892 15.7841 68.0566 16.5262ZM77.7539 26.5653C77.3633 26.5653 77.168 26.37 77.168 25.9794V12.9911C77.168 12.6005 77.3633 12.4052 77.7539 12.4052H79.2969C79.6224 12.4052 79.7982 12.6005 79.8242 12.9911L79.8633 13.5575H79.9023C80.2409 12.9976 80.6185 12.633 81.0352 12.4637C81.4518 12.2945 81.9531 12.2098 82.5391 12.2098C84.069 12.2098 85.1432 12.7404 85.7617 13.8016C86.3867 14.8563 86.6992 16.0998 86.6992 17.5321C86.6992 18.9644 86.3867 20.2111 85.7617 21.2723C85.1432 22.327 84.069 22.8544 82.5391 22.8544C81.9531 22.8544 81.4518 22.7697 81.0352 22.6005C80.6185 22.4312 80.2409 22.0666 79.9023 21.5067H79.8633C79.8893 21.7671 79.9023 22.0275 79.9023 22.288V25.9794C79.9023 26.37 79.707 26.5653 79.3164 26.5653H77.7539ZM79.9023 17.9716C79.9023 18.8505 80.0749 19.5666 80.4199 20.12C80.7715 20.6669 81.1914 20.9403 81.6797 20.9403C82.5586 20.9403 83.1315 20.6343 83.3984 20.0223C83.6719 19.4038 83.8086 18.5738 83.8086 17.5321C83.8086 16.4904 83.6719 15.6636 83.3984 15.0516C83.1315 14.4331 82.5586 14.1239 81.6797 14.1239C81.1914 14.1239 80.7715 14.4006 80.4199 14.954C80.0749 15.5009 79.9023 16.2137 79.9023 17.0927V17.9716ZM88.2617 19.9247C88.2617 18.6226 88.8835 17.6786 90.127 17.0927C91.3704 16.5067 92.7897 16.1942 94.3848 16.1552V15.7645C94.3848 15.1656 94.235 14.7424 93.9355 14.495C93.6361 14.2476 93.2194 14.1239 92.6855 14.1239C92.3079 14.1239 91.9727 14.1792 91.6797 14.2899C91.3932 14.3941 91.1426 14.5178 90.9277 14.661C90.7194 14.7977 90.5306 14.9377 90.3613 15.0809C90.0618 15.3413 89.8145 15.3544 89.6191 15.12L88.8086 14.1239C88.6068 13.8765 88.6556 13.6226 88.9551 13.3622C89.1829 13.1604 89.4466 12.9846 89.7461 12.8348C90.0521 12.6851 90.4557 12.5451 90.957 12.4149C91.4583 12.2782 92.1094 12.2098 92.9102 12.2098C94.2643 12.2098 95.3027 12.5223 96.0254 13.1473C96.7546 13.7723 97.1191 14.6936 97.1191 15.911V22.0731C97.1191 22.4637 96.9238 22.6591 96.5332 22.6591H94.9316C94.5801 22.6591 94.4043 22.4637 94.4043 22.0731V21.7802H94.3848C94.0007 22.1512 93.5384 22.4247 92.998 22.6005C92.4642 22.7697 91.9727 22.8544 91.5234 22.8544C90.4557 22.8544 89.6452 22.594 89.0918 22.0731C88.5384 21.5458 88.2617 20.8296 88.2617 19.9247ZM91.1523 19.8661C91.1523 20.094 91.1979 20.2925 91.2891 20.4618C91.3802 20.6246 91.5234 20.745 91.7188 20.8231C91.9141 20.9012 92.1322 20.9403 92.373 20.9403C92.7051 20.9403 93.0273 20.8947 93.3398 20.8036C93.6523 20.7124 94.0007 20.4976 94.3848 20.1591V18.0399C93.291 18.1636 92.5586 18.3231 92.1875 18.5184C91.8164 18.7137 91.5495 18.9156 91.3867 19.1239C91.2305 19.3322 91.1523 19.5796 91.1523 19.8661ZM99.2871 22.3759C98.9876 22.2131 98.8965 22.0015 99.0137 21.7411L99.3359 21.0477C99.4792 20.7352 99.7168 20.6897 100.049 20.911C100.576 21.2561 101.104 21.4286 101.631 21.4286C102.262 21.4286 102.673 21.217 102.861 20.7938C103.05 20.3641 103.145 19.7554 103.145 18.9677V9.19226C103.145 8.83419 103.307 8.65515 103.633 8.65515H104.531C104.857 8.65515 105.02 8.83419 105.02 9.19226V18.743C105.02 20.0321 104.818 21.0575 104.414 21.8192C104.01 22.5744 103.066 22.952 101.582 22.952C100.768 22.952 100.003 22.76 99.2871 22.3759ZM107.334 17.5321C107.334 16.0022 107.738 14.7391 108.545 13.743C109.359 12.7404 110.547 12.2391 112.109 12.2391C113.672 12.2391 114.857 12.7404 115.664 13.743C116.478 14.7391 116.885 16.0022 116.885 17.5321C116.885 19.0621 116.478 20.3283 115.664 21.3309C114.857 22.327 113.672 22.8251 112.109 22.8251C110.547 22.8251 109.359 22.327 108.545 21.3309C107.738 20.3283 107.334 19.0621 107.334 17.5321ZM109.15 17.5321C109.15 18.8993 109.421 19.9117 109.961 20.5692C110.501 21.2268 111.217 21.5555 112.109 21.5555C113.001 21.5555 113.717 21.2268 114.258 20.5692C114.798 19.9117 115.068 18.8993 115.068 17.5321C115.068 16.1649 114.798 15.1525 114.258 14.495C113.717 13.8374 113.001 13.5087 112.109 13.5087C111.217 13.5087 110.501 13.8374 109.961 14.495C109.421 15.1525 109.15 16.1649 109.15 17.5321ZM119.541 22.6591C119.248 22.6591 119.102 22.5126 119.102 22.2196V8.68445C119.102 8.39148 119.248 8.245 119.541 8.245H120.381C120.674 8.245 120.82 8.39148 120.82 8.68445V13.0302C120.82 13.232 120.814 13.4305 120.801 13.6259H120.82C121.178 13.1962 121.582 12.8576 122.031 12.6102C122.48 12.3628 123.079 12.2391 123.828 12.2391C125.13 12.2391 126.12 12.773 126.797 13.8407C127.474 14.9019 127.812 16.1324 127.812 17.5321C127.812 18.9318 127.474 20.1656 126.797 21.2333C126.12 22.2945 125.13 22.8251 123.828 22.8251C123.079 22.8251 122.48 22.7014 122.031 22.454C121.582 22.2066 121.178 21.868 120.82 21.4384H120.801L120.742 22.2196C120.723 22.5126 120.596 22.6591 120.361 22.6591H119.541ZM120.82 18.6552C120.82 19.6317 121.051 20.3609 121.514 20.8427C121.982 21.3179 122.568 21.5555 123.271 21.5555C124.261 21.5555 124.961 21.1844 125.371 20.4423C125.788 19.7001 125.996 18.73 125.996 17.5321C125.996 16.3342 125.788 15.3641 125.371 14.6219C124.961 13.8798 124.261 13.5087 123.271 13.5087C122.568 13.5087 121.982 13.7496 121.514 14.2313C121.051 14.7066 120.82 15.4325 120.82 16.4091V18.6552ZM129.639 21.702C129.437 21.5132 129.395 21.3374 129.512 21.1747L129.951 20.5594C130.094 20.3641 130.306 20.3739 130.586 20.5887C130.97 20.8817 131.396 21.1161 131.865 21.2919C132.34 21.4677 132.881 21.5555 133.486 21.5555C133.844 21.5555 134.163 21.5132 134.443 21.4286C134.723 21.3374 134.967 21.1714 135.176 20.9305C135.391 20.6897 135.498 20.3674 135.498 19.9637C135.498 19.7294 135.446 19.508 135.342 19.2997C135.244 19.0913 135.088 18.9253 134.873 18.8016C134.665 18.6714 134.46 18.5705 134.258 18.4989C133.926 18.3752 133.594 18.2743 133.262 18.1962C132.936 18.1115 132.507 17.9846 131.973 17.8153C131.615 17.7046 131.276 17.5484 130.957 17.3466C130.638 17.1382 130.358 16.8583 130.117 16.5067C129.883 16.1552 129.766 15.6701 129.766 15.0516C129.766 14.4201 129.958 13.8765 130.342 13.4208C130.726 12.965 131.208 12.6558 131.787 12.493C132.367 12.3238 132.93 12.2391 133.477 12.2391C134.284 12.2391 134.932 12.3335 135.42 12.5223C135.915 12.7046 136.341 12.9227 136.699 13.1766C136.908 13.3264 136.937 13.4989 136.787 13.6942L136.348 14.2802C136.211 14.469 135.999 14.4624 135.713 14.2606C135.472 14.0913 135.13 13.9318 134.688 13.7821C134.245 13.6324 133.857 13.5575 133.525 13.5575C133.115 13.5575 132.764 13.6031 132.471 13.6942C132.178 13.7854 131.94 13.9416 131.758 14.163C131.576 14.3843 131.484 14.6447 131.484 14.9442C131.484 15.1721 131.52 15.3772 131.592 15.5594C131.663 15.7352 131.797 15.898 131.992 16.0477C132.188 16.1975 132.461 16.3179 132.812 16.4091C133.359 16.5523 133.857 16.6825 134.307 16.7997C134.762 16.9169 135.173 17.0601 135.537 17.2294C136.012 17.4507 136.377 17.6949 136.631 17.9618C136.891 18.2287 137.07 18.5184 137.168 18.8309C137.266 19.1369 137.314 19.4787 137.314 19.8563C137.314 20.5529 137.106 21.1421 136.689 21.6239C136.279 22.1057 135.82 22.4279 135.312 22.5907C134.805 22.7469 134.193 22.8251 133.477 22.8251C132.507 22.8251 131.673 22.6884 130.977 22.4149C130.286 22.135 129.84 21.8973 129.639 21.702Z" fill="black"/>
</g>
</svg>
